<mxfile host="Electron" agent="Mozilla/5.0 (X11; Linux x86_64) AppleWebKit/537.36 (KHTML, like Gecko) draw.io/26.0.9 Chrome/128.0.6613.186 Electron/32.2.5 Safari/537.36" version="26.0.9">
  <diagram name="Page-1" id="9z0YFjZu2Rw0MtVLGU6C">
    <mxGraphModel dx="1964" dy="838" grid="1" gridSize="10" guides="1" tooltips="1" connect="1" arrows="1" fold="1" page="1" pageScale="1" pageWidth="850" pageHeight="1100" math="0" shadow="0">
      <root>
        <mxCell id="0" />
        <mxCell id="1" parent="0" />
        <mxCell id="UzWYed5YLgEl18jT7IFQ-9" style="edgeStyle=orthogonalEdgeStyle;rounded=0;orthogonalLoop=1;jettySize=auto;html=1;entryX=0;entryY=0.75;entryDx=0;entryDy=0;" edge="1" parent="1" source="UzWYed5YLgEl18jT7IFQ-2" target="UzWYed5YLgEl18jT7IFQ-3">
          <mxGeometry relative="1" as="geometry" />
        </mxCell>
        <mxCell id="UzWYed5YLgEl18jT7IFQ-2" value="ADP Interface" style="rounded=0;whiteSpace=wrap;html=1;" vertex="1" parent="1">
          <mxGeometry x="380" y="221" width="120" height="189" as="geometry" />
        </mxCell>
        <mxCell id="UzWYed5YLgEl18jT7IFQ-3" value="AVTP" style="rounded=0;whiteSpace=wrap;html=1;" vertex="1" parent="1">
          <mxGeometry x="645" y="220" width="120" height="60" as="geometry" />
        </mxCell>
        <mxCell id="UzWYed5YLgEl18jT7IFQ-38" style="edgeStyle=orthogonalEdgeStyle;rounded=0;orthogonalLoop=1;jettySize=auto;html=1;" edge="1" parent="1" source="UzWYed5YLgEl18jT7IFQ-4" target="UzWYed5YLgEl18jT7IFQ-10">
          <mxGeometry relative="1" as="geometry" />
        </mxCell>
        <mxCell id="UzWYed5YLgEl18jT7IFQ-39" value="IND&amp;nbsp;" style="edgeLabel;html=1;align=center;verticalAlign=middle;resizable=0;points=[];" vertex="1" connectable="0" parent="UzWYed5YLgEl18jT7IFQ-38">
          <mxGeometry x="0.3429" y="-2" relative="1" as="geometry">
            <mxPoint as="offset" />
          </mxGeometry>
        </mxCell>
        <mxCell id="UzWYed5YLgEl18jT7IFQ-4" value="Entity 1" style="rounded=0;whiteSpace=wrap;html=1;" vertex="1" parent="1">
          <mxGeometry x="-100" y="210" width="120" height="90" as="geometry" />
        </mxCell>
        <mxCell id="UzWYed5YLgEl18jT7IFQ-5" style="edgeStyle=orthogonalEdgeStyle;rounded=0;orthogonalLoop=1;jettySize=auto;html=1;entryX=1;entryY=0.181;entryDx=0;entryDy=0;entryPerimeter=0;" edge="1" parent="1" source="UzWYed5YLgEl18jT7IFQ-3" target="UzWYed5YLgEl18jT7IFQ-2">
          <mxGeometry relative="1" as="geometry" />
        </mxCell>
        <mxCell id="UzWYed5YLgEl18jT7IFQ-19" style="edgeStyle=orthogonalEdgeStyle;rounded=0;orthogonalLoop=1;jettySize=auto;html=1;entryX=0;entryY=0.25;entryDx=0;entryDy=0;" edge="1" parent="1" source="UzWYed5YLgEl18jT7IFQ-10" target="UzWYed5YLgEl18jT7IFQ-2">
          <mxGeometry relative="1" as="geometry" />
        </mxCell>
        <mxCell id="UzWYed5YLgEl18jT7IFQ-10" value="ADP Entity Specific" style="rounded=0;whiteSpace=wrap;html=1;" vertex="1" parent="1">
          <mxGeometry x="160" y="210" width="120" height="90" as="geometry" />
        </mxCell>
        <mxCell id="UzWYed5YLgEl18jT7IFQ-14" style="edgeStyle=orthogonalEdgeStyle;rounded=0;orthogonalLoop=1;jettySize=auto;html=1;entryX=1;entryY=0.75;entryDx=0;entryDy=0;" edge="1" parent="1" source="UzWYed5YLgEl18jT7IFQ-13" target="UzWYed5YLgEl18jT7IFQ-2">
          <mxGeometry relative="1" as="geometry" />
        </mxCell>
        <mxCell id="UzWYed5YLgEl18jT7IFQ-27" style="edgeStyle=orthogonalEdgeStyle;rounded=0;orthogonalLoop=1;jettySize=auto;html=1;entryX=1;entryY=0.5;entryDx=0;entryDy=0;" edge="1" parent="1" source="UzWYed5YLgEl18jT7IFQ-13" target="UzWYed5YLgEl18jT7IFQ-3">
          <mxGeometry relative="1" as="geometry" />
        </mxCell>
        <mxCell id="UzWYed5YLgEl18jT7IFQ-13" value="MAC" style="rounded=0;whiteSpace=wrap;html=1;" vertex="1" parent="1">
          <mxGeometry x="850" y="321" width="120" height="60" as="geometry" />
        </mxCell>
        <mxCell id="UzWYed5YLgEl18jT7IFQ-16" value="" style="endArrow=classic;html=1;rounded=0;entryX=0;entryY=0.75;entryDx=0;entryDy=0;exitX=1.017;exitY=0.884;exitDx=0;exitDy=0;edgeStyle=orthogonalEdgeStyle;exitPerimeter=0;" edge="1" parent="1" source="UzWYed5YLgEl18jT7IFQ-2" target="UzWYed5YLgEl18jT7IFQ-13">
          <mxGeometry width="50" height="50" relative="1" as="geometry">
            <mxPoint x="440" y="430" as="sourcePoint" />
            <mxPoint x="490" y="380" as="targetPoint" />
          </mxGeometry>
        </mxCell>
        <mxCell id="UzWYed5YLgEl18jT7IFQ-20" style="edgeStyle=orthogonalEdgeStyle;rounded=0;orthogonalLoop=1;jettySize=auto;html=1;" edge="1" parent="1" source="UzWYed5YLgEl18jT7IFQ-18" target="UzWYed5YLgEl18jT7IFQ-2">
          <mxGeometry relative="1" as="geometry" />
        </mxCell>
        <mxCell id="UzWYed5YLgEl18jT7IFQ-18" value="ADP Entity Specific" style="rounded=0;whiteSpace=wrap;html=1;" vertex="1" parent="1">
          <mxGeometry x="160" y="321" width="120" height="90" as="geometry" />
        </mxCell>
        <mxCell id="UzWYed5YLgEl18jT7IFQ-21" value="ADP Interface" style="rounded=0;whiteSpace=wrap;html=1;" vertex="1" parent="1">
          <mxGeometry x="380" y="440" width="120" height="189" as="geometry" />
        </mxCell>
        <mxCell id="UzWYed5YLgEl18jT7IFQ-37" style="edgeStyle=orthogonalEdgeStyle;rounded=0;orthogonalLoop=1;jettySize=auto;html=1;entryX=0;entryY=0.25;entryDx=0;entryDy=0;" edge="1" parent="1" source="UzWYed5YLgEl18jT7IFQ-23" target="UzWYed5YLgEl18jT7IFQ-18">
          <mxGeometry relative="1" as="geometry" />
        </mxCell>
        <mxCell id="UzWYed5YLgEl18jT7IFQ-23" value="Entity 2" style="rounded=0;whiteSpace=wrap;html=1;" vertex="1" parent="1">
          <mxGeometry x="-100" y="320" width="120" height="90" as="geometry" />
        </mxCell>
        <mxCell id="UzWYed5YLgEl18jT7IFQ-26" style="edgeStyle=orthogonalEdgeStyle;rounded=0;orthogonalLoop=1;jettySize=auto;html=1;entryX=0;entryY=0.25;entryDx=0;entryDy=0;" edge="1" parent="1" source="UzWYed5YLgEl18jT7IFQ-25" target="UzWYed5YLgEl18jT7IFQ-21">
          <mxGeometry relative="1" as="geometry" />
        </mxCell>
        <mxCell id="UzWYed5YLgEl18jT7IFQ-25" value="ADP Entity Specific" style="rounded=0;whiteSpace=wrap;html=1;" vertex="1" parent="1">
          <mxGeometry x="160" y="470" width="120" height="90" as="geometry" />
        </mxCell>
        <mxCell id="UzWYed5YLgEl18jT7IFQ-28" value="" style="shape=curlyBracket;whiteSpace=wrap;html=1;rounded=1;flipH=1;labelPosition=right;verticalLabelPosition=middle;align=left;verticalAlign=middle;rotation=90;" vertex="1" parent="1">
          <mxGeometry x="430" y="140" width="20" height="120" as="geometry" />
        </mxCell>
        <mxCell id="UzWYed5YLgEl18jT7IFQ-30" value="" style="shape=curlyBracket;whiteSpace=wrap;html=1;rounded=1;flipH=1;labelPosition=right;verticalLabelPosition=middle;align=left;verticalAlign=middle;rotation=90;" vertex="1" parent="1">
          <mxGeometry x="210" y="140" width="20" height="120" as="geometry" />
        </mxCell>
        <mxCell id="UzWYed5YLgEl18jT7IFQ-31" value="Internal Parameter Interface access" style="ellipse;whiteSpace=wrap;html=1;" vertex="1" parent="1">
          <mxGeometry x="160" y="110" width="120" height="80" as="geometry" />
        </mxCell>
        <mxCell id="UzWYed5YLgEl18jT7IFQ-32" value="Internal Parameter Interface access" style="ellipse;whiteSpace=wrap;html=1;" vertex="1" parent="1">
          <mxGeometry x="380" y="110" width="120" height="80" as="geometry" />
        </mxCell>
        <mxCell id="UzWYed5YLgEl18jT7IFQ-36" style="edgeStyle=orthogonalEdgeStyle;rounded=0;orthogonalLoop=1;jettySize=auto;html=1;entryX=0;entryY=0.25;entryDx=0;entryDy=0;" edge="1" parent="1" source="UzWYed5YLgEl18jT7IFQ-34" target="UzWYed5YLgEl18jT7IFQ-25">
          <mxGeometry relative="1" as="geometry" />
        </mxCell>
        <mxCell id="UzWYed5YLgEl18jT7IFQ-34" value="Entity 2" style="rounded=0;whiteSpace=wrap;html=1;" vertex="1" parent="1">
          <mxGeometry x="-100" y="470" width="120" height="90" as="geometry" />
        </mxCell>
      </root>
    </mxGraphModel>
  </diagram>
</mxfile>
